<?xml version="1.0" encoding="UTF-8" standalone="no"?> <!-- Created with Vectornator for iOS (http://vectornator.io/) --><!DOCTYPE svg PUBLIC "-//W3C//DTD SVG 1.1//EN" "http://www.w3.org/Graphics/SVG/1.1/DTD/svg11.dtd">
<svg style="fill-rule:evenodd;clip-rule:evenodd;stroke-linecap:round;stroke-linejoin:round;" xmlns:vectornator="http://vectornator.io" xmlns:xlink="http://www.w3.org/1999/xlink" xmlns="http://www.w3.org/2000/svg" xml:space="preserve" version="1.1" viewBox="0 0 1024 1024">
<metadata>
<vectornator:setting key="DynamicGuides" value="1"/>
<vectornator:setting key="CMYKEnabledKey" value="0"/>
<vectornator:setting key="Units" value="Points"/>
<vectornator:setting key="RulersVisible" value="1"/>
<vectornator:setting key="SnapToGuides" value="1"/>
<vectornator:setting key="GridSpacing" value="64"/>
</metadata>
<defs>
<radialGradient cx="0" r="1" id="RadialGradient" gradientUnits="userSpaceOnUse" gradientTransform="matrix(505.909 4.50297 -4.50297 505.909 494.384 514.373)" cy="0">
<stop stop-color="#323232" offset="0"/>
<stop stop-color="#1c1c1e" offset="1"/>
</radialGradient>
</defs>
<g id="Untitled" vectornator:layerName="Untitled">
<path d="M-1-1L1025-1L1025-1L1025+1025L1025+1025L-1+1025L-1+1025L-1-1L-1-1Z" opacity="0" fill="none"/>
<g opacity="1">
<path d="M0+0L1024+0L1024+0L1024+1024L1024+1024L0+1024L0+1024L0+0L0+0Z" fill-rule="evenodd" fill="url(#RadialGradient)" opacity="1"/>
<path d="M459.999+360L459.999+339.999L200+339.999L200+859.999L700+859.999L700+679.999L680+679.999L680+839.999L220+839.999L220+360C220+360+459.999+360+459.999+360Z" fill-rule="evenodd" fill-opacity="0.6" fill="#00aa6e" opacity="1"/>
<text x="0" font-family="AppleColorEmoji" y="0" text-anchor="start" vectornator:text="✓" fill="#00aa6e" font-size="963.656" vectornator:width="739.387" opacity="1" transform="matrix(1.01459 0 0 1.01459 230 -80)">
<tspan x="0" y="894" textLength="580.17">
✓</tspan>
</text>
<g opacity="1">
<path d="M-0.035+708.406C0.02+747.164+0.581+779.428+3.454+808.592C4.33+817.482+5.477+826.098+6.819+834.505C9.548+851.606+13.07+865.137+17.443+879.134C18.427+882.28+19.787+885.143+20.99+888.032C25.945+899.932+31.432+910.657+37.742+920.263C45.225+931.653+54.333+943.705+64.433+954.059C75.715+965.626+86.596+974.666+98.671+982.845C106.425+988.097+113.839+992.655+122.327+996.764C125.67+998.383+129.11+1000.02+132.782+1001.64C138.793+1004.29+145.429+1006.88+153.164+1009.07C169.503+1013.7+191+1018.58+219.839+1020.86C245.888+1022.92+277.911+1024.07+319.047+1024.03L-0.0350038+1024.03L-0.0350038+708.406C-0.0350038+708.406-0.0349938+708.406-0.035+708.406Z" fill-rule="evenodd" fill="#ffffff" opacity="1"/>
<path d="M1024+708.375C1023.97+741.9+1023.64+765.894+1021.81+794.505C1019.67+828.137+1014.14+856.536+1005.68+880.333C1000.52+894.851+994.278+907.656+987.052+918.891C976.659+935.049+964.401+950.059+950.157+963.355C943.292+969.763+936.187+975.171+928.238+980.857C917.864+988.276+908.012+993.919+896.056+999.495C885.366+1004.48+872.891+1009+856.15+1012.95C844.566+1015.68+830.939+1018.28+814.446+1020.02C787.213+1022.89+752.268+1023.43+706.188+1024L1024+1024C1024+1024+1024+708.375+1024+708.375Z" fill-rule="evenodd" fill="#ffffff" opacity="1"/>
<path d="M1023.96+318.263C1024.14+279.122+1023.66+244.704+1020.48+214.322C1019.07+200.822+1016.63+188.012+1014.53+176.134C1010.91+155.676+1004.41+137.688+997.229+123.425C995.102+119.199+993.322+115.871+991.451+112.609C989.953+109.997+988.397+107.427+986.558+104.473C984.597+101.325+982.684+98.277+980.565+95.276C974.885+87.233+968.403+79.35+961.655+72.083C951.59+61.242+940.401+51.101+927.773+42.698C909.733+30.694+894.472+21.39+866.087+13.615C853.187+10.081+837.403+6.74601+817.428+4.38801C790.091+1.16101+754.657+0.0810108+706.188+1.09673e-05L1024+1.09673e-05C1024+1.09673e-05+1023.96+318.263+1023.96+318.263Z" fill-rule="evenodd" fill="#ffffff" opacity="1"/>
<path d="M0+318.48C0.044+264.215+1.952+215.427+8.798+178.458C14.755+146.294+24.641+123.979+37.89+103.38C53.291+79.435+73.015+58.195+97.25+42.031C111.804+32.324+124.486+25.31+143.391+18.055C153.253+14.271+164.742+11.469+178.089+8.87299C208.323+2.99099+250.7-0.293011+319.082-1.04904e-05L0-1.04904e-05L0+318.48C0+318.48-1e-05+318.48+0+318.48Z" fill-rule="evenodd" fill="#ffffff" opacity="1"/>
</g>
</g>
</g>
</svg>
